#!OML:ASF H:\MichaelJackson\Top Level 1\Subject 1\Session 1\male.ASF
:FULLY-SPECIFIED
:DEGREES
173
root 5.88042 16.421 -28.0968 -5.9437 25.1675 1.20791
lowerback 15.5146 -5.40439 -6.83927
upperback 4.59086 -8.18428 -1.88667
thorax -3.05897 -4.02908 3.23113
lowerneck -8.92332 -3.35218 -0.425463
upperneck 0.375816 -4.58578 5.12974
head 1.79095 -2.15834 1.50549
rclavicle 5.05907e-014 -4.77083e-015
rhumerus -41.7146 -25.0456 -61.7658
rradius 91.8119
rwrist -22.6877
rhand -49.9844 -69.5794
rfingers 7.12502
rthumb -22.5741 98.2796
lclavicle 5.05907e-014 -4.77083e-015
lhumerus -41.5878 -38.6514 102.988
lradius 56.5838
lwrist 23.5124
lhand 40.6728 31.2675
lfingers 7.12502
lthumb 62.9506 41.5252
rfemur -88.2735 -21.3769 41.7338
rtibia 105.454
rfoot 8.60797 32.793
rtoes -24.1717
lfemur -15.1335 16.8423 -19.1737
ltibia 41.3705
lfoot -20.2193 -0.660905
ltoes -6.24772
174
root 5.84107 16.4181 -28.0892 -5.46847 25.426 1.16362
lowerback 15.1758 -5.485 -6.66708
upperback 4.45927 -8.2486 -1.90968
thorax -3.04028 -4.05987 3.09542
lowerneck -8.91761 -3.42957 -0.310856
upperneck 0.365311 -4.70368 5.22306
head 1.78958 -2.21455 1.51034
rclavicle -8.3589e-014 1.03368e-014
rhumerus -41.98 -21.9438 -64.8585
rradius 93.9556
rwrist -19.5758
rhand -48.7734 -63.4425
rfingers 7.12502
rthumb -21.4114 92.2794
lclavicle -8.3589e-014 1.03368e-014
lhumerus -41.7846 -39.6113 103.68
lradius 56.3062
lwrist 23.5823
lhand 41.2892 31.7186
lfingers 7.12502
lthumb 63.4549 41.2748
rfemur -87.8346 -21.8767 40.5065
rtibia 108.769
rfoot 8.0086 31.8199
rtoes -24.5483
lfemur -15.7638 17.3443 -19.1035
ltibia 41.5475
lfoot -19.9155 0.940277
ltoes -7.54535
175
root 5.80059 16.4189 -28.08 -4.95896 25.6395 1.21415
lowerback 14.8287 -5.52161 -6.58926
upperback 4.33899 -8.26902 -1.95611
thorax -2.99872 -4.06998 2.97773
lowerneck -8.91842 -3.50968 -0.17802
upperneck 0.308631 -4.82452 5.30661
head 1.77336 -2.2732 1.50881
rclavicle -1.41137e-014 2.8625e-014
rhumerus -42.3653 -18.7412 -68.0349
rradius 95.9349
rwrist -15.8368
rhand -46.9719 -56.191
rfingers 7.12502
rthumb -19.6802 -85.2148
lclavicle -1.41137e-014 2.8625e-014
lhumerus -41.9943 -40.6 104.376
lradius 56.0533
lwrist 23.3245
lhand 41.9597 31.6762
lfingers 7.12502
lthumb 63.9984 40.4371
rfemur -87.1287 -22.5958 39.1749
rtibia 111.773
rfoot 7.59401 29.934
rtoes -24.4744
lfemur -16.302 17.9891 -19.0994
ltibia 41.6231
lfoot -19.5139 2.64204
ltoes -8.61955
176
root 5.75815 16.4228 -28.0674 -4.43281 25.8054 1.3354
lowerback 14.4611 -5.51462 -6.62263
upperback 4.23669 -8.24526 -2.00793
thorax -2.91525 -4.06023 2.90404
lowerneck -8.92273 -3.5906 -0.0403902
upperneck 0.212679 -4.94438 5.37609
head 1.74412 -2.33252 1.50209
rclavicle -3.63776e-014 1.19271e-014
rhumerus -42.8361 -15.5997 -71.1942
rradius 97.7235
rwrist -11.7144
rhand -44.3649 -48.0203
rfingers 7.12502
rthumb -17.1724 -77.2815
lclavicle -3.63776e-014 1.19271e-014
lhumerus -42.2088 -41.5791 105.073
lradius 55.8104
lwrist 22.8384
lhand 42.6421 31.005
lfingers 7.12502
lthumb 64.5458 38.9204
rfemur -86.1229 -23.5013 37.7146
rtibia 114.418
rfoot 7.77609 27.3462
rtoes -23.3678
lfemur -16.7458 18.8135 -19.1245
ltibia 41.6196
lfoot -19.0437 4.39328
ltoes -9.42955
177
root 5.71557 16.4287 -28.0528 -3.8936 25.9069 1.50556
lowerback 14.0791 -5.47262 -6.72204
upperback 4.14061 -8.18242 -2.06284
thorax -2.81133 -4.03203 2.8554
lowerneck -8.93455 -3.67027 0.0903869
upperneck 0.110727 -5.06096 5.43047
head 1.71378 -2.39075 1.49186
rclavicle 6.20208e-014 -7.95139e-016
rhumerus -43.3487 -12.6695 -74.2336
rradius 99.3199
rwrist -7.56801
rhand -40.5554 -39.1108
rfingers 7.12502
rthumb -13.5032 -68.653
lclavicle 6.20208e-014 -7.95139e-016
lhumerus -42.4299 -42.5033 105.765
lradius 55.5703
lwrist 22.2655
lhand 43.2959 30.0642
lfingers 7.12502
lthumb 65.0645 37.1334
rfemur -84.827 -24.5353 36.0894
rtibia 116.654
rfoot 8.74836 24.3242
rtoes -20.9285
lfemur -17.1258 19.812 -19.1746
ltibia 41.5673
lfoot -18.5246 6.18466
ltoes -9.90811
